# xmcd
#
# Track frame offsets: 
#        150
#        12725
#        36512
#        49115
#        58647
#        70967
#        82352
#        98197
#        109257
#        133507
#        148235
#        164625
#        177215
#        189155
#        201655
#        222887
#
# Disc length: 3152 seconds
#
# Revision: 5
# Processed by: cddbd v1.5.2PL0 Copyright (c) Steve Scherf et al.
# Submitted via: ExactAudioCopyFreeDBPlugin 1.0
#
DISCID=010c4e10
DTITLE=James Brown - The Very Best Of
DYEAR=1997
DGENRE=Soul
TTITLE0=I got you (I feel good)
TTITLE1=Get up ... (sex machine)
TTITLE2=It's a man's man's world
TTITLE3=Papa's got a brand new bag
TTITLE4=Please
TTITLE5=Try me (I need you)
TTITLE6=Night train
TTITLE7=Prisoner of love
TTITLE8=Doing it to death
TTITLE9=Make it funky (part 1)
TTITLE10=Hey America
TTITLE11=Say it loud, I'm black and I'm proud
TTITLE12=I got the feeling
TTITLE13=Think
TTITLE14=Living in America
TTITLE15=Maybe the last time
EXTD=
EXTT0=
EXTT1=
EXTT2=
EXTT3=
EXTT4=
EXTT5=
EXTT6=
EXTT7=
EXTT8=
EXTT9=
EXTT10=
EXTT11=
EXTT12=
EXTT13=
EXTT14=
EXTT15=
PLAYORDER=
